<?xml version="1.0" encoding="UTF-8"?><svg id="Layer_2" xmlns="http://www.w3.org/2000/svg" viewBox="0 0 278.1 370.21"><defs><style>.cls-1{fill:#3fbff5;}.cls-2{fill:#bfbfbf;}.cls-3{fill:#3297c2;}.cls-4{fill:#fdedd0;}.cls-5{fill:#333;}.cls-6{fill:#fde4b6;}.cls-7{fill:#424242;}.cls-8{fill:#636363;}.cls-9{fill:#efefef;}.cls-10{fill:#545454;}</style></defs><g id="Layer_1-2"><g><rect class="cls-2" y="33.32" width="278.1" height="336.89" rx="28.43" ry="28.43"/><path class="cls-9" d="M15.69,30.66H251.26c8.66,0,15.69,7.03,15.69,15.69V338.94c0,8.66-7.03,15.69-15.69,15.69H15.69c-8.66,0-15.69-7.03-15.69-15.69V46.35c0-8.66,7.03-15.69,15.69-15.69Z"/><path class="cls-2" d="M29.88,91.08H237.19c3.87,0,7.01,3.38,7.01,7.54h0c0,4.16-3.14,7.54-7.01,7.54H29.88c-3.87,0-7.01-3.38-7.01-7.54h0c0-4.16,3.14-7.54,7.01-7.54Z"/><path class="cls-2" d="M29.88,129.49H237.19c3.87,0,7.01,3.38,7.01,7.54h0c0,4.16-3.14,7.54-7.01,7.54H29.88c-3.87,0-7.01-3.38-7.01-7.54h0c0-4.16,3.14-7.54,7.01-7.54Z"/><path class="cls-2" d="M29.88,168.19H237.19c3.87,0,7.01,3.38,7.01,7.54h0c0,4.16-3.14,7.54-7.01,7.54H29.88c-3.87,0-7.01-3.38-7.01-7.54h0c0-4.16,3.14-7.54,7.01-7.54Z"/><rect class="cls-10" y="34" width="278.1" height="34.33"/><path class="cls-7" d="M249.67,.01h-110.62V34h139.05v-2.68C278.1,14.03,265.37,.01,249.67,.01Z"/><path class="cls-8" d="M.11,17.33v16.67H266.95V17.33C266.95,7.83,260.03,.12,251.45,0H15.61C7.03,.12,.11,7.83,.11,17.33Z"/><polygon class="cls-4" points="139.05 357.96 104.89 282.96 173.22 282.96 139.05 357.96"/><polygon class="cls-6" points="139.05 339.64 147.4 339.64 173.22 282.96 139.05 282.96 139.05 339.64"/><path class="cls-5" d="M138.87,357.78l10.54-23.13c-3.16-1.61-6.74-2.52-10.54-2.52s-7.37,.91-10.54,2.52l10.54,23.13Z"/><rect class="cls-3" x="104.89" y=".01" width="68.33" height="283.13"/><rect class="cls-1" x="104.89" width="34.17" height="282.96"/><rect class="cls-5" x="266.95" y="34" width="11.15" height="34.33"/></g></g></svg>