<?xml version="1.0" encoding="UTF-8"?><svg id="Layer_2" xmlns="http://www.w3.org/2000/svg" viewBox="0 0 370.21 370.21"><defs><style>.cls-1{fill:#3fbff5;}.cls-2{fill:#bfbfbf;}.cls-3{fill:#3297c2;}.cls-4{fill:#fdedd0;}.cls-5{fill:#333;}.cls-6{fill:#fde4b6;}.cls-7{fill:#424242;}.cls-8{fill:none;}.cls-9{fill:#636363;}.cls-10{fill:#efefef;}.cls-11{fill:#545454;}</style></defs><g id="Layer_1-2"><g><rect class="cls-8" width="370.21" height="370.21"/><g><rect class="cls-2" x="46.06" y="33.32" width="278.1" height="336.89" rx="28.43" ry="28.43"/><path class="cls-10" d="M61.74,30.66h235.58c8.66,0,15.69,7.03,15.69,15.69V338.94c0,8.66-7.03,15.69-15.69,15.69H61.74c-8.66,0-15.69-7.03-15.69-15.69V46.35c0-8.66,7.03-15.69,15.69-15.69Z"/><path class="cls-2" d="M75.94,91.08h207.31c3.87,0,7.01,3.38,7.01,7.54h0c0,4.16-3.14,7.54-7.01,7.54H75.94c-3.87,0-7.01-3.38-7.01-7.54h0c0-4.16,3.14-7.54,7.01-7.54Z"/><path class="cls-2" d="M75.94,129.49h207.31c3.87,0,7.01,3.38,7.01,7.54h0c0,4.16-3.14,7.54-7.01,7.54H75.94c-3.87,0-7.01-3.38-7.01-7.54h0c0-4.16,3.14-7.54,7.01-7.54Z"/><path class="cls-2" d="M75.94,168.19h207.31c3.87,0,7.01,3.38,7.01,7.54h0c0,4.16-3.14,7.54-7.01,7.54H75.94c-3.87,0-7.01-3.38-7.01-7.54h0c0-4.16,3.14-7.54,7.01-7.54Z"/><rect class="cls-11" x="46.06" y="34" width="278.1" height="34.33"/><path class="cls-7" d="M295.73,.01h-110.62V34h139.05v-2.68C324.16,14.03,311.43,.01,295.73,.01Z"/><path class="cls-9" d="M46.17,17.33v16.67H313.01V17.33C313.01,7.83,306.08,.12,297.51,0H61.67c-8.58,.11-15.5,7.82-15.5,17.32Z"/><polygon class="cls-4" points="185.11 357.96 150.95 282.96 219.28 282.96 185.11 357.96"/><polygon class="cls-6" points="185.11 339.64 193.46 339.64 219.28 282.96 185.11 282.96 185.11 339.64"/><path class="cls-5" d="M184.93,357.78l10.54-23.13c-3.16-1.61-6.74-2.52-10.54-2.52s-7.37,.91-10.54,2.52l10.54,23.13Z"/><rect class="cls-3" x="150.95" y=".01" width="68.33" height="283.13"/><rect class="cls-1" x="150.95" y="0" width="34.17" height="282.96"/><rect class="cls-5" x="313.01" y="34" width="11.15" height="34.33"/></g></g></g></svg>